<svg width="225pt" height="114pt"
 viewBox="0.00 0.00 225.00 114.00" xmlns="http://www.w3.org/2000/svg" xmlns:xlink="http://www.w3.org/1999/xlink">
<g id="graph0" class="graph" transform="scale(1 1) rotate(0) translate(4 110)">
<title>FA</title>
<polygon fill="#ffffff" stroke="transparent" points="-4,4 -4,-110 221,-110 221,4 -4,4"/>
<!-- start -->
<g id="node1" class="node">
<title>start</title>
<text text-anchor="middle" x="27" y="-49.3" font-family="Times,serif" font-size="14.00" fill="#000000">start</text>
</g>
<!-- 0 -->
<g id="node2" class="node">
<title>0</title>
<ellipse fill="none" stroke="#000000" cx="109" cy="-53" rx="18" ry="18"/>
<text text-anchor="middle" x="109" y="-49.3" font-family="Times,serif" font-size="14.00" fill="#000000">0</text>
</g>
<!-- start&#45;&gt;0 -->
<g id="edge1" class="edge">
<title>start&#45;&gt;0</title>
<path fill="none" stroke="#000000" d="M54.3048,-53C62.6909,-53 71.9407,-53 80.4103,-53"/>
<polygon fill="#000000" stroke="#000000" points="80.5976,-56.5001 90.5976,-53 80.5976,-49.5001 80.5976,-56.5001"/>
</g>
<!-- 2 -->
<g id="node3" class="node">
<title>2</title>
<ellipse fill="none" stroke="#ff0000" cx="195" cy="-84" rx="18" ry="18"/>
<ellipse fill="none" stroke="#ff0000" cx="195" cy="-84" rx="22" ry="22"/>
<text text-anchor="middle" x="195" y="-80.3" font-family="Times,serif" font-size="14.00" fill="#000000">2</text>
</g>
<!-- 0&#45;&gt;2 -->
<g id="edge2" class="edge">
<title>0&#45;&gt;2</title>
<path fill="none" stroke="#000000" d="M125.9908,-59.1246C136.9911,-63.0898 151.6289,-68.3662 164.5922,-73.039"/>
<polygon fill="#000000" stroke="#000000" points="163.4965,-76.3645 174.0909,-76.463 165.8703,-69.7792 163.4965,-76.3645"/>
<text text-anchor="middle" x="150" y="-72.8" font-family="Times,serif" font-size="14.00" fill="#000000">b</text>
</g>
<!-- 1 -->
<g id="node4" class="node">
<title>1</title>
<ellipse fill="none" stroke="#ff0000" cx="195" cy="-22" rx="18" ry="18"/>
<ellipse fill="none" stroke="#ff0000" cx="195" cy="-22" rx="22" ry="22"/>
<text text-anchor="middle" x="195" y="-18.3" font-family="Times,serif" font-size="14.00" fill="#000000">1</text>
</g>
<!-- 0&#45;&gt;1 -->
<g id="edge3" class="edge">
<title>0&#45;&gt;1</title>
<path fill="none" stroke="#000000" d="M125.9908,-46.8754C136.9911,-42.9102 151.6289,-37.6338 164.5922,-32.961"/>
<polygon fill="#000000" stroke="#000000" points="165.8703,-36.2208 174.0909,-29.537 163.4965,-29.6355 165.8703,-36.2208"/>
<text text-anchor="middle" x="150" y="-42.8" font-family="Times,serif" font-size="14.00" fill="#000000">a</text>
</g>
</g>
</svg>
