<svg width="225pt" height="52pt"
 viewBox="0.00 0.00 225.00 52.00" xmlns="http://www.w3.org/2000/svg" xmlns:xlink="http://www.w3.org/1999/xlink">
<g id="graph0" class="graph" transform="scale(1 1) rotate(0) translate(4 48)">
<title>FA</title>
<polygon fill="#ffffff" stroke="transparent" points="-4,4 -4,-48 221,-48 221,4 -4,4"/>
<!-- start -->
<g id="node1" class="node">
<title>start</title>
<text text-anchor="middle" x="27" y="-18.3" font-family="Times,serif" font-size="14.00" fill="#000000">start</text>
</g>
<!-- 0 -->
<g id="node2" class="node">
<title>0</title>
<ellipse fill="none" stroke="#000000" cx="109" cy="-22" rx="18" ry="18"/>
<text text-anchor="middle" x="109" y="-18.3" font-family="Times,serif" font-size="14.00" fill="#000000">0</text>
</g>
<!-- start&#45;&gt;0 -->
<g id="edge1" class="edge">
<title>start&#45;&gt;0</title>
<path fill="none" stroke="#000000" d="M54.3048,-22C62.6909,-22 71.9407,-22 80.4103,-22"/>
<polygon fill="#000000" stroke="#000000" points="80.5976,-25.5001 90.5976,-22 80.5976,-18.5001 80.5976,-25.5001"/>
</g>
<!-- 1 -->
<g id="node3" class="node">
<title>1</title>
<ellipse fill="none" stroke="#ff0000" cx="195" cy="-22" rx="18" ry="18"/>
<ellipse fill="none" stroke="#ff0000" cx="195" cy="-22" rx="22" ry="22"/>
<text text-anchor="middle" x="195" y="-18.3" font-family="Times,serif" font-size="14.00" fill="#000000">1</text>
</g>
<!-- 0&#45;&gt;1 -->
<g id="edge2" class="edge">
<title>0&#45;&gt;1</title>
<path fill="none" stroke="#000000" d="M127.2384,-22C137.5348,-22 150.7046,-22 162.691,-22"/>
<polygon fill="#000000" stroke="#000000" points="162.818,-25.5001 172.8179,-22 162.8179,-18.5001 162.818,-25.5001"/>
<text text-anchor="middle" x="150" y="-25.8" font-family="Times,serif" font-size="14.00" fill="#000000">a</text>
</g>
<!-- 0&#45;&gt;1 -->
<g id="edge3" class="edge">
<title>0&#45;&gt;1</title>
<path fill="none" stroke="#000000" d="M124.1057,-11.93C130.3068,-8.3682 137.7287,-4.8011 145,-3 152.4364,-1.158 160.2725,-2.4765 167.4785,-5.1097"/>
<polygon fill="#000000" stroke="#000000" points="166.2644,-8.4021 176.8174,-9.3421 169.1539,-2.0263 166.2644,-8.4021"/>
<text text-anchor="middle" x="150" y="-6.8" font-family="Times,serif" font-size="14.00" fill="#000000">b</text>
</g>
</g>
</svg>
