<svg width="1672pt" height="523pt"
 viewBox="0.00 0.00 1672.43 523.00" xmlns="http://www.w3.org/2000/svg" xmlns:xlink="http://www.w3.org/1999/xlink">
<g id="graph0" class="graph" transform="scale(1 1) rotate(0) translate(4 519)">
<title>FA</title>
<polygon fill="#ffffff"  points="-4,4 -4,-519 1668.4314,-519 1668.4314,4 -4,4"/>
<!-- start -->
<g id="node1" class="node">
<title>start</title>
<text text-anchor="middle" x="27" y="-150.3" font-family="Times,serif" font-size="14.00" fill="#000000">start</text>
</g>
<!-- 32 -->
<g id="node2" class="node">
<title>32</title>
<ellipse fill="none" stroke="#000000" cx="113.748" cy="-154" rx="22.9987" ry="22.9987"/>
<text text-anchor="middle" x="113.748" y="-150.3" font-family="Times,serif" font-size="14.00" fill="#000000">32</text>
</g>
<!-- start&#45;&gt;32 -->
<g id="edge1" class="edge">
<title>start&#45;&gt;32</title>
<path fill="none" stroke="#000000" d="M54.4476,-154C62.7759,-154 72.0138,-154 80.671,-154"/>
<polygon fill="#000000" stroke="#000000" points="80.8425,-157.5001 90.8425,-154 80.8425,-150.5001 80.8425,-157.5001"/>
</g>
<!-- 24 -->
<g id="node28" class="node">
<title>24</title>
<ellipse fill="none" stroke="#000000" cx="203.2439" cy="-196" rx="22.9987" ry="22.9987"/>
<text text-anchor="middle" x="203.2439" y="-192.3" font-family="Times,serif" font-size="14.00" fill="#000000">24</text>
</g>
<!-- 32&#45;&gt;24 -->
<g id="edge3" class="edge">
<title>32&#45;&gt;24</title>
<path fill="none" stroke="#000000" stroke-dasharray="5,2" d="M134.5051,-163.7412C146.0266,-169.1482 160.5606,-175.9689 173.2934,-181.9443"/>
<polygon fill="#000000" stroke="#000000" points="172.0597,-185.2316 182.5994,-186.3116 175.0336,-178.8947 172.0597,-185.2316"/>
<text text-anchor="middle" x="158.496" y="-180.8" font-family="Times,serif" font-size="14.00" fill="#000000">ε</text>
</g>
<!-- 30 -->
<g id="node35" class="node">
<title>30</title>
<ellipse fill="none" stroke="#000000" cx="203.2439" cy="-114" rx="22.9987" ry="22.9987"/>
<text text-anchor="middle" x="203.2439" y="-110.3" font-family="Times,serif" font-size="14.00" fill="#000000">30</text>
</g>
<!-- 32&#45;&gt;30 -->
<g id="edge2" class="edge">
<title>32&#45;&gt;30</title>
<path fill="none" stroke="#000000" stroke-dasharray="5,2" d="M134.9573,-144.5206C146.3258,-139.4394 160.528,-133.0918 173.0315,-127.5034"/>
<polygon fill="#000000" stroke="#000000" points="174.4854,-130.6873 182.1869,-123.4114 171.6291,-124.2965 174.4854,-130.6873"/>
<text text-anchor="middle" x="158.496" y="-139.8" font-family="Times,serif" font-size="14.00" fill="#000000">ε</text>
</g>
<!-- 0 -->
<g id="node3" class="node">
<title>0</title>
<ellipse fill="none" stroke="#000000" cx="922.9516" cy="-497" rx="18" ry="18"/>
<text text-anchor="middle" x="922.9516" y="-493.3" font-family="Times,serif" font-size="14.00" fill="#000000">0</text>
</g>
<!-- 1 -->
<g id="node4" class="node">
<title>1</title>
<ellipse fill="none" stroke="#000000" cx="1030.9516" cy="-497" rx="18" ry="18"/>
<text text-anchor="middle" x="1030.9516" y="-493.3" font-family="Times,serif" font-size="14.00" fill="#000000">1</text>
</g>
<!-- 0&#45;&gt;1 -->
<g id="edge4" class="edge">
<title>0&#45;&gt;1</title>
<path fill="none" stroke="#000000" d="M941.2723,-497C958.1306,-497 983.3864,-497 1002.8045,-497"/>
<polygon fill="#000000" stroke="#000000" points="1002.9014,-500.5001 1012.9014,-497 1002.9014,-493.5001 1002.9014,-500.5001"/>
<text text-anchor="middle" x="976.9516" y="-500.8" font-family="Times,serif" font-size="14.00" fill="#000000">a</text>
</g>
<!-- 5 -->
<g id="node5" class="node">
<title>5</title>
<ellipse fill="none" stroke="#000000" cx="1110.9516" cy="-443" rx="18" ry="18"/>
<text text-anchor="middle" x="1110.9516" y="-439.3" font-family="Times,serif" font-size="14.00" fill="#000000">5</text>
</g>
<!-- 1&#45;&gt;5 -->
<g id="edge5" class="edge">
<title>1&#45;&gt;5</title>
<path fill="none" stroke="#000000" stroke-dasharray="5,2" d="M1045.9989,-486.843C1057.7317,-478.9234 1074.2332,-467.7849 1087.6674,-458.7168"/>
<polygon fill="#000000" stroke="#000000" points="1089.6413,-461.6072 1095.9716,-453.1114 1085.725,-455.8052 1089.6413,-461.6072"/>
<text text-anchor="middle" x="1070.9516" y="-474.8" font-family="Times,serif" font-size="14.00" fill="#000000">ε</text>
</g>
<!-- 9 -->
<g id="node9" class="node">
<title>9</title>
<ellipse fill="none" stroke="#000000" cx="1190.9516" cy="-392" rx="18" ry="18"/>
<text text-anchor="middle" x="1190.9516" y="-388.3" font-family="Times,serif" font-size="14.00" fill="#000000">9</text>
</g>
<!-- 5&#45;&gt;9 -->
<g id="edge6" class="edge">
<title>5&#45;&gt;9</title>
<path fill="none" stroke="#000000" stroke-dasharray="5,2" d="M1126.3764,-433.1667C1137.8864,-425.829 1153.8288,-415.6657 1166.993,-407.2736"/>
<polygon fill="#000000" stroke="#000000" points="1169.0233,-410.13 1175.5741,-401.8031 1165.2604,-404.2274 1169.0233,-410.13"/>
<text text-anchor="middle" x="1150.9516" y="-422.8" font-family="Times,serif" font-size="14.00" fill="#000000">ε</text>
</g>
<!-- 2 -->
<g id="node6" class="node">
<title>2</title>
<ellipse fill="none" stroke="#000000" cx="922.9516" cy="-443" rx="18" ry="18"/>
<text text-anchor="middle" x="922.9516" y="-439.3" font-family="Times,serif" font-size="14.00" fill="#000000">2</text>
</g>
<!-- 3 -->
<g id="node7" class="node">
<title>3</title>
<ellipse fill="none" stroke="#000000" cx="1030.9516" cy="-443" rx="18" ry="18"/>
<text text-anchor="middle" x="1030.9516" y="-439.3" font-family="Times,serif" font-size="14.00" fill="#000000">3</text>
</g>
<!-- 2&#45;&gt;3 -->
<g id="edge7" class="edge">
<title>2&#45;&gt;3</title>
<path fill="none" stroke="#000000" d="M941.2723,-443C958.1306,-443 983.3864,-443 1002.8045,-443"/>
<polygon fill="#000000" stroke="#000000" points="1002.9014,-446.5001 1012.9014,-443 1002.9014,-439.5001 1002.9014,-446.5001"/>
<text text-anchor="middle" x="976.9516" y="-446.8" font-family="Times,serif" font-size="14.00" fill="#000000">ba</text>
</g>
<!-- 3&#45;&gt;5 -->
<g id="edge8" class="edge">
<title>3&#45;&gt;5</title>
<path fill="none" stroke="#000000" stroke-dasharray="5,2" d="M1049.1048,-443C1059.0264,-443 1071.5349,-443 1082.7023,-443"/>
<polygon fill="#000000" stroke="#000000" points="1082.8702,-446.5001 1092.8702,-443 1082.8701,-439.5001 1082.8702,-446.5001"/>
<text text-anchor="middle" x="1070.9516" y="-446.8" font-family="Times,serif" font-size="14.00" fill="#000000">ε</text>
</g>
<!-- 4 -->
<g id="node8" class="node">
<title>4</title>
<ellipse fill="none" stroke="#000000" cx="800.7076" cy="-443" rx="18" ry="18"/>
<text text-anchor="middle" x="800.7076" y="-439.3" font-family="Times,serif" font-size="14.00" fill="#000000">4</text>
</g>
<!-- 4&#45;&gt;0 -->
<g id="edge10" class="edge">
<title>4&#45;&gt;0</title>
<path fill="none" stroke="#000000" stroke-dasharray="5,2" d="M817.3081,-450.8808C824.6799,-454.3442 833.4767,-458.4274 841.4556,-462 859.9605,-470.2855 880.9893,-479.3071 897.0503,-486.1156"/>
<polygon fill="#000000" stroke="#000000" points="895.7679,-489.3733 906.3416,-490.0425 898.493,-482.9255 895.7679,-489.3733"/>
<text text-anchor="middle" x="864.2036" y="-484.8" font-family="Times,serif" font-size="14.00" fill="#000000">ε</text>
</g>
<!-- 4&#45;&gt;2 -->
<g id="edge9" class="edge">
<title>4&#45;&gt;2</title>
<path fill="none" stroke="#000000" stroke-dasharray="5,2" d="M818.7451,-443C838.7878,-443 871.406,-443 894.8123,-443"/>
<polygon fill="#000000" stroke="#000000" points="894.8401,-446.5001 904.84,-443 894.84,-439.5001 894.8401,-446.5001"/>
<text text-anchor="middle" x="864.2036" y="-446.8" font-family="Times,serif" font-size="14.00" fill="#000000">ε</text>
</g>
<!-- 13 -->
<g id="node13" class="node">
<title>13</title>
<ellipse fill="none" stroke="#000000" cx="1275.6995" cy="-347" rx="22.9987" ry="22.9987"/>
<text text-anchor="middle" x="1275.6995" y="-343.3" font-family="Times,serif" font-size="14.00" fill="#000000">13</text>
</g>
<!-- 9&#45;&gt;13 -->
<g id="edge11" class="edge">
<title>9&#45;&gt;13</title>
<path fill="none" stroke="#000000" stroke-dasharray="5,2" d="M1206.892,-383.5358C1217.9268,-377.6765 1232.9436,-369.7028 1246.1332,-362.6993"/>
<polygon fill="#000000" stroke="#000000" points="1248.1405,-365.5963 1255.3312,-357.8153 1244.8577,-359.4138 1248.1405,-365.5963"/>
<text text-anchor="middle" x="1230.9516" y="-376.8" font-family="Times,serif" font-size="14.00" fill="#000000">ε</text>
</g>
<!-- 6 -->
<g id="node10" class="node">
<title>6</title>
<ellipse fill="none" stroke="#000000" cx="864.2036" cy="-392" rx="18" ry="18"/>
<text text-anchor="middle" x="864.2036" y="-388.3" font-family="Times,serif" font-size="14.00" fill="#000000">6</text>
</g>
<!-- 7 -->
<g id="node11" class="node">
<title>7</title>
<ellipse fill="none" stroke="#000000" cx="976.9516" cy="-392" rx="18" ry="18"/>
<text text-anchor="middle" x="976.9516" y="-388.3" font-family="Times,serif" font-size="14.00" fill="#000000">7</text>
</g>
<!-- 6&#45;&gt;7 -->
<g id="edge12" class="edge">
<title>6&#45;&gt;7</title>
<path fill="none" stroke="#000000" d="M882.3185,-392C900.2354,-392 927.9145,-392 948.7178,-392"/>
<polygon fill="#000000" stroke="#000000" points="948.8816,-395.5001 958.8816,-392 948.8816,-388.5001 948.8816,-395.5001"/>
<text text-anchor="middle" x="922.9516" y="-395.8" font-family="Times,serif" font-size="14.00" fill="#000000">ba</text>
</g>
<!-- 7&#45;&gt;9 -->
<g id="edge13" class="edge">
<title>7&#45;&gt;9</title>
<path fill="none" stroke="#000000" stroke-dasharray="5,2" d="M995.1971,-392C1032.548,-392 1117.954,-392 1162.5919,-392"/>
<polygon fill="#000000" stroke="#000000" points="1162.7523,-395.5001 1172.7522,-392 1162.7522,-388.5001 1162.7523,-395.5001"/>
<text text-anchor="middle" x="1070.9516" y="-395.8" font-family="Times,serif" font-size="14.00" fill="#000000">ε</text>
</g>
<!-- 8 -->
<g id="node12" class="node">
<title>8</title>
<ellipse fill="none" stroke="#000000" cx="673.7157" cy="-392" rx="18" ry="18"/>
<text text-anchor="middle" x="673.7157" y="-388.3" font-family="Times,serif" font-size="14.00" fill="#000000">8</text>
</g>
<!-- 8&#45;&gt;4 -->
<g id="edge15" class="edge">
<title>8&#45;&gt;4</title>
<path fill="none" stroke="#000000" stroke-dasharray="5,2" d="M690.2332,-400.0726C697.5896,-403.5714 706.3973,-407.6294 714.4637,-411 733.9884,-419.1585 756.4056,-427.4441 773.4907,-433.5396"/>
<polygon fill="#000000" stroke="#000000" points="772.7713,-436.9975 783.366,-437.0312 775.1047,-430.3979 772.7713,-436.9975"/>
<text text-anchor="middle" x="737.2116" y="-431.8" font-family="Times,serif" font-size="14.00" fill="#000000">ε</text>
</g>
<!-- 8&#45;&gt;6 -->
<g id="edge14" class="edge">
<title>8&#45;&gt;6</title>
<path fill="none" stroke="#000000" stroke-dasharray="5,2" d="M691.9805,-392C725.3326,-392 796.3001,-392 835.9355,-392"/>
<polygon fill="#000000" stroke="#000000" points="835.9941,-395.5001 845.9941,-392 835.9941,-388.5001 835.9941,-395.5001"/>
<text text-anchor="middle" x="737.2116" y="-395.8" font-family="Times,serif" font-size="14.00" fill="#000000">ε</text>
</g>
<!-- 17 -->
<g id="node17" class="node">
<title>17</title>
<ellipse fill="none" stroke="#000000" cx="1365.1955" cy="-297" rx="22.9987" ry="22.9987"/>
<text text-anchor="middle" x="1365.1955" y="-293.3" font-family="Times,serif" font-size="14.00" fill="#000000">17</text>
</g>
<!-- 13&#45;&gt;17 -->
<g id="edge16" class="edge">
<title>13&#45;&gt;17</title>
<path fill="none" stroke="#000000" stroke-dasharray="5,2" d="M1295.5616,-335.9034C1307.5281,-329.2179 1322.9761,-320.5873 1336.2804,-313.1544"/>
<polygon fill="#000000" stroke="#000000" points="1338.0566,-316.1713 1345.0795,-308.2385 1334.6425,-310.0604 1338.0566,-316.1713"/>
<text text-anchor="middle" x="1320.4475" y="-327.8" font-family="Times,serif" font-size="14.00" fill="#000000">ε</text>
</g>
<!-- 10 -->
<g id="node14" class="node">
<title>10</title>
<ellipse fill="none" stroke="#000000" cx="737.2116" cy="-346" rx="22.9987" ry="22.9987"/>
<text text-anchor="middle" x="737.2116" y="-342.3" font-family="Times,serif" font-size="14.00" fill="#000000">10</text>
</g>
<!-- 11 -->
<g id="node15" class="node">
<title>11</title>
<ellipse fill="none" stroke="#000000" cx="864.2036" cy="-346" rx="22.9987" ry="22.9987"/>
<text text-anchor="middle" x="864.2036" y="-342.3" font-family="Times,serif" font-size="14.00" fill="#000000">11</text>
</g>
<!-- 10&#45;&gt;11 -->
<g id="edge17" class="edge">
<title>10&#45;&gt;11</title>
<path fill="none" stroke="#000000" d="M760.2089,-346C780.0775,-346 809.0259,-346 831.3382,-346"/>
<polygon fill="#000000" stroke="#000000" points="831.3774,-349.5001 841.3774,-346 831.3773,-342.5001 831.3774,-349.5001"/>
<text text-anchor="middle" x="800.7076" y="-349.8" font-family="Times,serif" font-size="14.00" fill="#000000">ba</text>
</g>
<!-- 11&#45;&gt;13 -->
<g id="edge18" class="edge">
<title>11&#45;&gt;13</title>
<path fill="none" stroke="#000000" stroke-dasharray="5,2" d="M887.0933,-346C909.8727,-346 945.8284,-346 976.9516,-346 976.9516,-346 976.9516,-346 1190.9516,-346 1207.9281,-346 1226.8162,-346.2031 1242.4446,-346.4263"/>
<polygon fill="#000000" stroke="#000000" points="1242.6279,-349.9294 1252.68,-346.5817 1242.7343,-342.9302 1242.6279,-349.9294"/>
<text text-anchor="middle" x="1070.9516" y="-349.8" font-family="Times,serif" font-size="14.00" fill="#000000">ε</text>
</g>
<!-- 12 -->
<g id="node16" class="node">
<title>12</title>
<ellipse fill="none" stroke="#000000" cx="546.7238" cy="-347" rx="22.9987" ry="22.9987"/>
<text text-anchor="middle" x="546.7238" y="-343.3" font-family="Times,serif" font-size="14.00" fill="#000000">12</text>
</g>
<!-- 12&#45;&gt;8 -->
<g id="edge20" class="edge">
<title>12&#45;&gt;8</title>
<path fill="none" stroke="#000000" stroke-dasharray="5,2" d="M567.6859,-356.7997C573.9863,-359.5981 580.9567,-362.5501 587.4717,-365 606.9301,-372.3171 629.3496,-379.2928 646.4524,-384.3204"/>
<polygon fill="#000000" stroke="#000000" points="645.7613,-387.764 656.3403,-387.1846 647.709,-381.0404 645.7613,-387.764"/>
<text text-anchor="middle" x="610.2197" y="-383.8" font-family="Times,serif" font-size="14.00" fill="#000000">ε</text>
</g>
<!-- 12&#45;&gt;10 -->
<g id="edge19" class="edge">
<title>12&#45;&gt;10</title>
<path fill="none" stroke="#000000" stroke-dasharray="5,2" d="M569.5663,-346.3407C575.4036,-346.1994 581.6695,-346.0712 587.4717,-346 627.6993,-345.5065 674.0105,-345.6096 704.3498,-345.7684"/>
<polygon fill="#000000" stroke="#000000" points="704.3589,-349.2684 714.3789,-345.826 704.3992,-342.2685 704.3589,-349.2684"/>
<text text-anchor="middle" x="610.2197" y="-349.8" font-family="Times,serif" font-size="14.00" fill="#000000">ε</text>
</g>
<!-- 21 -->
<g id="node21" class="node">
<title>21</title>
<ellipse fill="none" stroke="#000000" cx="1454.6915" cy="-247" rx="22.9987" ry="22.9987"/>
<text text-anchor="middle" x="1454.6915" y="-243.3" font-family="Times,serif" font-size="14.00" fill="#000000">21</text>
</g>
<!-- 17&#45;&gt;21 -->
<g id="edge21" class="edge">
<title>17&#45;&gt;21</title>
<path fill="none" stroke="#000000" stroke-dasharray="5,2" d="M1385.0576,-285.9034C1397.0241,-279.2179 1412.472,-270.5873 1425.7764,-263.1544"/>
<polygon fill="#000000" stroke="#000000" points="1427.5526,-266.1713 1434.5755,-258.2385 1424.1384,-260.0604 1427.5526,-266.1713"/>
<text text-anchor="middle" x="1409.9435" y="-277.8" font-family="Times,serif" font-size="14.00" fill="#000000">ε</text>
</g>
<!-- 14 -->
<g id="node18" class="node">
<title>14</title>
<ellipse fill="none" stroke="#000000" cx="610.2197" cy="-296" rx="22.9987" ry="22.9987"/>
<text text-anchor="middle" x="610.2197" y="-292.3" font-family="Times,serif" font-size="14.00" fill="#000000">14</text>
</g>
<!-- 15 -->
<g id="node19" class="node">
<title>15</title>
<ellipse fill="none" stroke="#000000" cx="737.2116" cy="-296" rx="22.9987" ry="22.9987"/>
<text text-anchor="middle" x="737.2116" y="-292.3" font-family="Times,serif" font-size="14.00" fill="#000000">15</text>
</g>
<!-- 14&#45;&gt;15 -->
<g id="edge22" class="edge">
<title>14&#45;&gt;15</title>
<path fill="none" stroke="#000000" d="M633.217,-296C653.0856,-296 682.034,-296 704.3463,-296"/>
<polygon fill="#000000" stroke="#000000" points="704.3855,-299.5001 714.3855,-296 704.3854,-292.5001 704.3855,-299.5001"/>
<text text-anchor="middle" x="673.7157" y="-299.8" font-family="Times,serif" font-size="14.00" fill="#000000">ba</text>
</g>
<!-- 15&#45;&gt;17 -->
<g id="edge23" class="edge">
<title>15&#45;&gt;17</title>
<path fill="none" stroke="#000000" stroke-dasharray="5,2" d="M760.1531,-296C785.5861,-296 827.8257,-296 864.2036,-296 864.2036,-296 864.2036,-296 1275.6995,-296 1294.3093,-296 1315.0944,-296.2189 1331.9463,-296.4518"/>
<polygon fill="#000000" stroke="#000000" points="1332.3398,-299.9579 1342.3901,-296.6048 1332.4424,-292.9586 1332.3398,-299.9579"/>
<text text-anchor="middle" x="1070.9516" y="-299.8" font-family="Times,serif" font-size="14.00" fill="#000000">ε</text>
</g>
<!-- 16 -->
<g id="node20" class="node">
<title>16</title>
<ellipse fill="none" stroke="#000000" cx="419.7318" cy="-297" rx="22.9987" ry="22.9987"/>
<text text-anchor="middle" x="419.7318" y="-293.3" font-family="Times,serif" font-size="14.00" fill="#000000">16</text>
</g>
<!-- 16&#45;&gt;12 -->
<g id="edge25" class="edge">
<title>16&#45;&gt;12</title>
<path fill="none" stroke="#000000" stroke-dasharray="5,2" d="M440.7769,-306.5876C447.0797,-309.3799 454.0306,-312.3819 460.4798,-315 478.4935,-322.3127 498.8771,-329.9067 515.3034,-335.8608"/>
<polygon fill="#000000" stroke="#000000" points="514.3687,-339.2441 524.9631,-339.339 516.7402,-332.6581 514.3687,-339.2441"/>
<text text-anchor="middle" x="483.2278" y="-336.8" font-family="Times,serif" font-size="14.00" fill="#000000">ε</text>
</g>
<!-- 16&#45;&gt;14 -->
<g id="edge24" class="edge">
<title>16&#45;&gt;14</title>
<path fill="none" stroke="#000000" stroke-dasharray="5,2" d="M442.5744,-296.3407C448.4117,-296.1994 454.6776,-296.0712 460.4798,-296 500.7074,-295.5065 547.0186,-295.6096 577.3579,-295.7684"/>
<polygon fill="#000000" stroke="#000000" points="577.367,-299.2684 587.387,-295.826 577.4073,-292.2685 577.367,-299.2684"/>
<text text-anchor="middle" x="483.2278" y="-299.8" font-family="Times,serif" font-size="14.00" fill="#000000">ε</text>
</g>
<!-- 25 -->
<g id="node25" class="node">
<title>25</title>
<ellipse fill="none" stroke="#000000" cx="1544.1874" cy="-196" rx="22.9987" ry="22.9987"/>
<text text-anchor="middle" x="1544.1874" y="-192.3" font-family="Times,serif" font-size="14.00" fill="#000000">25</text>
</g>
<!-- 21&#45;&gt;25 -->
<g id="edge26" class="edge">
<title>21&#45;&gt;25</title>
<path fill="none" stroke="#000000" stroke-dasharray="5,2" d="M1474.5535,-235.6814C1486.6037,-228.8145 1502.1842,-219.9359 1515.5511,-212.3186"/>
<polygon fill="#000000" stroke="#000000" points="1517.4255,-215.279 1524.3809,-207.2869 1513.9597,-209.1972 1517.4255,-215.279"/>
<text text-anchor="middle" x="1499.4394" y="-227.8" font-family="Times,serif" font-size="14.00" fill="#000000">ε</text>
</g>
<!-- 18 -->
<g id="node22" class="node">
<title>18</title>
<ellipse fill="none" stroke="#000000" cx="483.2278" cy="-246" rx="22.9987" ry="22.9987"/>
<text text-anchor="middle" x="483.2278" y="-242.3" font-family="Times,serif" font-size="14.00" fill="#000000">18</text>
</g>
<!-- 19 -->
<g id="node23" class="node">
<title>19</title>
<ellipse fill="none" stroke="#000000" cx="610.2197" cy="-246" rx="22.9987" ry="22.9987"/>
<text text-anchor="middle" x="610.2197" y="-242.3" font-family="Times,serif" font-size="14.00" fill="#000000">19</text>
</g>
<!-- 18&#45;&gt;19 -->
<g id="edge27" class="edge">
<title>18&#45;&gt;19</title>
<path fill="none" stroke="#000000" d="M506.2251,-246C526.0937,-246 555.042,-246 577.3544,-246"/>
<polygon fill="#000000" stroke="#000000" points="577.3936,-249.5001 587.3935,-246 577.3935,-242.5001 577.3936,-249.5001"/>
<text text-anchor="middle" x="546.7238" y="-249.8" font-family="Times,serif" font-size="14.00" fill="#000000">ba</text>
</g>
<!-- 19&#45;&gt;21 -->
<g id="edge28" class="edge">
<title>19&#45;&gt;21</title>
<path fill="none" stroke="#000000" stroke-dasharray="5,2" d="M633.1611,-246C658.5942,-246 700.8338,-246 737.2116,-246 737.2116,-246 737.2116,-246 1365.1955,-246 1383.8052,-246 1404.5903,-246.2189 1421.4423,-246.4518"/>
<polygon fill="#000000" stroke="#000000" points="1421.8358,-249.9579 1431.886,-246.6048 1421.9384,-242.9586 1421.8358,-249.9579"/>
<text text-anchor="middle" x="1070.9516" y="-249.8" font-family="Times,serif" font-size="14.00" fill="#000000">ε</text>
</g>
<!-- 20 -->
<g id="node24" class="node">
<title>20</title>
<ellipse fill="none" stroke="#000000" cx="292.7399" cy="-247" rx="22.9987" ry="22.9987"/>
<text text-anchor="middle" x="292.7399" y="-243.3" font-family="Times,serif" font-size="14.00" fill="#000000">20</text>
</g>
<!-- 20&#45;&gt;16 -->
<g id="edge30" class="edge">
<title>20&#45;&gt;16</title>
<path fill="none" stroke="#000000" stroke-dasharray="5,2" d="M313.785,-256.5876C320.0877,-259.3799 327.0386,-262.3819 333.4879,-265 351.5016,-272.3127 371.8852,-279.9067 388.3114,-285.8608"/>
<polygon fill="#000000" stroke="#000000" points="387.3767,-289.2441 397.9712,-289.339 389.7482,-282.6581 387.3767,-289.2441"/>
<text text-anchor="middle" x="356.2359" y="-286.8" font-family="Times,serif" font-size="14.00" fill="#000000">ε</text>
</g>
<!-- 20&#45;&gt;18 -->
<g id="edge29" class="edge">
<title>20&#45;&gt;18</title>
<path fill="none" stroke="#000000" stroke-dasharray="5,2" d="M315.5825,-246.3407C321.4197,-246.1994 327.6857,-246.0712 333.4879,-246 373.7155,-245.5065 420.0267,-245.6096 450.3659,-245.7684"/>
<polygon fill="#000000" stroke="#000000" points="450.3751,-249.2684 460.3951,-245.826 450.4154,-242.2685 450.3751,-249.2684"/>
<text text-anchor="middle" x="356.2359" y="-249.8" font-family="Times,serif" font-size="14.00" fill="#000000">ε</text>
</g>
<!-- 33 -->
<g id="node29" class="node">
<title>33</title>
<ellipse fill="none" stroke="#ff0000" cx="1637.6834" cy="-146" rx="22.9609" ry="22.9609"/>
<ellipse fill="none" stroke="#ff0000" cx="1637.6834" cy="-146" rx="26.9983" ry="26.9983"/>
<text text-anchor="middle" x="1637.6834" y="-142.3" font-family="Times,serif" font-size="14.00" fill="#000000">33</text>
</g>
<!-- 25&#45;&gt;33 -->
<g id="edge31" class="edge">
<title>25&#45;&gt;33</title>
<path fill="none" stroke="#000000" stroke-dasharray="5,2" d="M1564.4747,-185.1507C1576.2566,-178.85 1591.3821,-170.7611 1604.8231,-163.5731"/>
<polygon fill="#000000" stroke="#000000" points="1606.6297,-166.5761 1613.7974,-158.7738 1603.3286,-160.4033 1606.6297,-166.5761"/>
<text text-anchor="middle" x="1588.9354" y="-177.8" font-family="Times,serif" font-size="14.00" fill="#000000">ε</text>
</g>
<!-- 22 -->
<g id="node26" class="node">
<title>22</title>
<ellipse fill="none" stroke="#000000" cx="356.2359" cy="-197" rx="22.9987" ry="22.9987"/>
<text text-anchor="middle" x="356.2359" y="-193.3" font-family="Times,serif" font-size="14.00" fill="#000000">22</text>
</g>
<!-- 23 -->
<g id="node27" class="node">
<title>23</title>
<ellipse fill="none" stroke="#000000" cx="483.2278" cy="-196" rx="22.9987" ry="22.9987"/>
<text text-anchor="middle" x="483.2278" y="-192.3" font-family="Times,serif" font-size="14.00" fill="#000000">23</text>
</g>
<!-- 22&#45;&gt;23 -->
<g id="edge32" class="edge">
<title>22&#45;&gt;23</title>
<path fill="none" stroke="#000000" d="M379.2332,-196.8189C399.1017,-196.6625 428.0501,-196.4345 450.3625,-196.2588"/>
<polygon fill="#000000" stroke="#000000" points="450.4295,-199.7585 460.4016,-196.1797 450.3743,-192.7587 450.4295,-199.7585"/>
<text text-anchor="middle" x="419.7318" y="-200.8" font-family="Times,serif" font-size="14.00" fill="#000000">ba</text>
</g>
<!-- 23&#45;&gt;25 -->
<g id="edge33" class="edge">
<title>23&#45;&gt;25</title>
<path fill="none" stroke="#000000" stroke-dasharray="5,2" d="M506.1692,-196C531.6023,-196 573.8418,-196 610.2197,-196 610.2197,-196 610.2197,-196 1454.6915,-196 1473.3,-196 1494.0851,-196 1510.9372,-196"/>
<polygon fill="#000000" stroke="#000000" points="1511.3812,-199.5001 1521.3812,-196 1511.3812,-192.5001 1511.3812,-199.5001"/>
<text text-anchor="middle" x="1070.9516" y="-199.8" font-family="Times,serif" font-size="14.00" fill="#000000">ε</text>
</g>
<!-- 24&#45;&gt;20 -->
<g id="edge35" class="edge">
<title>24&#45;&gt;20</title>
<path fill="none" stroke="#000000" stroke-dasharray="5,2" d="M223.106,-207.3186C235.1562,-214.1855 250.7367,-223.0641 264.1036,-230.6814"/>
<polygon fill="#000000" stroke="#000000" points="262.5122,-233.8028 272.9334,-235.7131 265.978,-227.721 262.5122,-233.8028"/>
<text text-anchor="middle" x="247.9919" y="-227.8" font-family="Times,serif" font-size="14.00" fill="#000000">ε</text>
</g>
<!-- 24&#45;&gt;22 -->
<g id="edge34" class="edge">
<title>24&#45;&gt;22</title>
<path fill="none" stroke="#000000" stroke-dasharray="5,2" d="M226.1484,-196.1497C251.8359,-196.3176 293.7259,-196.5914 323.0098,-196.7828"/>
<polygon fill="#000000" stroke="#000000" points="323.1522,-200.2837 333.1749,-196.8493 323.198,-193.2839 323.1522,-200.2837"/>
<text text-anchor="middle" x="247.9919" y="-200.8" font-family="Times,serif" font-size="14.00" fill="#000000">ε</text>
</g>
<!-- 26 -->
<g id="node30" class="node">
<title>26</title>
<ellipse fill="none" stroke="#000000" cx="419.7318" cy="-63" rx="22.9987" ry="22.9987"/>
<text text-anchor="middle" x="419.7318" y="-59.3" font-family="Times,serif" font-size="14.00" fill="#000000">26</text>
</g>
<!-- 27 -->
<g id="node31" class="node">
<title>27</title>
<ellipse fill="none" stroke="#000000" cx="546.7238" cy="-63" rx="22.9987" ry="22.9987"/>
<text text-anchor="middle" x="546.7238" y="-59.3" font-family="Times,serif" font-size="14.00" fill="#000000">27</text>
</g>
<!-- 26&#45;&gt;27 -->
<g id="edge36" class="edge">
<title>26&#45;&gt;27</title>
<path fill="none" stroke="#000000" d="M442.7291,-63C462.5977,-63 491.5461,-63 513.8584,-63"/>
<polygon fill="#000000" stroke="#000000" points="513.8976,-66.5001 523.8976,-63 513.8975,-59.5001 513.8976,-66.5001"/>
<text text-anchor="middle" x="483.2278" y="-66.8" font-family="Times,serif" font-size="14.00" fill="#000000">b</text>
</g>
<!-- 27&#45;&gt;26 -->
<g id="edge38" class="edge">
<title>27&#45;&gt;26</title>
<path fill="none" stroke="#000000" stroke-dasharray="5,2" d="M526.613,-51.5114C520.2211,-48.4452 512.9867,-45.5542 505.9758,-44 486.2346,-39.6237 480.221,-39.6237 460.4798,-44 456.7553,-44.8257 452.9676,-46.0286 449.2768,-47.4347"/>
<polygon fill="#000000" stroke="#000000" points="447.6339,-44.3317 439.8426,-51.5114 450.4106,-50.7575 447.6339,-44.3317"/>
<text text-anchor="middle" x="483.2278" y="-47.8" font-family="Times,serif" font-size="14.00" fill="#000000">ε</text>
</g>
<!-- 29 -->
<g id="node32" class="node">
<title>29</title>
<ellipse fill="none" stroke="#000000" cx="673.7157" cy="-114" rx="22.9987" ry="22.9987"/>
<text text-anchor="middle" x="673.7157" y="-110.3" font-family="Times,serif" font-size="14.00" fill="#000000">29</text>
</g>
<!-- 27&#45;&gt;29 -->
<g id="edge37" class="edge">
<title>27&#45;&gt;29</title>
<path fill="none" stroke="#000000" stroke-dasharray="5,2" d="M569.4728,-66.4387C587.327,-69.6891 612.5002,-75.5102 632.9677,-85 637.864,-87.2702 642.7849,-90.1475 647.4296,-93.2034"/>
<polygon fill="#000000" stroke="#000000" points="645.7486,-96.2999 655.9424,-99.1872 649.7741,-90.5732 645.7486,-96.2999"/>
<text text-anchor="middle" x="610.2197" y="-88.8" font-family="Times,serif" font-size="14.00" fill="#000000">ε</text>
</g>
<!-- 28 -->
<g id="node33" class="node">
<title>28</title>
<ellipse fill="none" stroke="#000000" cx="292.7399" cy="-114" rx="22.9987" ry="22.9987"/>
<text text-anchor="middle" x="292.7399" y="-110.3" font-family="Times,serif" font-size="14.00" fill="#000000">28</text>
</g>
<!-- 29&#45;&gt;28 -->
<g id="edge40" class="edge">
<title>29&#45;&gt;28</title>
<path fill="none" stroke="#000000" stroke-dasharray="5,2" d="M650.712,-114C585.9688,-114 401.9874,-114 326.099,-114"/>
<polygon fill="#000000" stroke="#000000" points="325.7137,-110.5001 315.7137,-114 325.7137,-117.5001 325.7137,-110.5001"/>
<text text-anchor="middle" x="483.2278" y="-117.8" font-family="Times,serif" font-size="14.00" fill="#000000">ε</text>
</g>
<!-- 31 -->
<g id="node34" class="node">
<title>31</title>
<ellipse fill="none" stroke="#000000" cx="800.7076" cy="-114" rx="22.9987" ry="22.9987"/>
<text text-anchor="middle" x="800.7076" y="-110.3" font-family="Times,serif" font-size="14.00" fill="#000000">31</text>
</g>
<!-- 29&#45;&gt;31 -->
<g id="edge39" class="edge">
<title>29&#45;&gt;31</title>
<path fill="none" stroke="#000000" stroke-dasharray="5,2" d="M696.713,-114C716.5815,-114 745.5299,-114 767.8423,-114"/>
<polygon fill="#000000" stroke="#000000" points="767.8815,-117.5001 777.8814,-114 767.8814,-110.5001 767.8815,-117.5001"/>
<text text-anchor="middle" x="737.2116" y="-117.8" font-family="Times,serif" font-size="14.00" fill="#000000">ε</text>
</g>
<!-- 28&#45;&gt;26 -->
<g id="edge42" class="edge">
<title>28&#45;&gt;26</title>
<path fill="none" stroke="#000000" stroke-dasharray="5,2" d="M310.5132,-99.1872C317.3519,-94.086 325.4529,-88.7254 333.4879,-85 350.2777,-77.2154 370.2339,-71.8995 386.7191,-68.4462"/>
<polygon fill="#000000" stroke="#000000" points="387.8406,-71.7933 396.9828,-66.4387 386.4969,-64.9234 387.8406,-71.7933"/>
<text text-anchor="middle" x="356.2359" y="-88.8" font-family="Times,serif" font-size="14.00" fill="#000000">ε</text>
</g>
<!-- 28&#45;&gt;29 -->
<g id="edge41" class="edge">
<title>28&#45;&gt;29</title>
<path fill="none" stroke="#000000" stroke-dasharray="5,2" d="M313.9761,-122.7076C320.1628,-124.8556 327.004,-126.8647 333.4879,-128 464.5953,-150.9571 501.8603,-150.9571 632.9677,-128 636.2097,-127.4323 639.5409,-126.6462 642.8351,-125.7335"/>
<polygon fill="#000000" stroke="#000000" points="643.9858,-129.0408 652.4794,-122.7076 641.8903,-122.3618 643.9858,-129.0408"/>
<text text-anchor="middle" x="483.2278" y="-149.8" font-family="Times,serif" font-size="14.00" fill="#000000">ε</text>
</g>
<!-- 31&#45;&gt;33 -->
<g id="edge43" class="edge">
<title>31&#45;&gt;33</title>
<path fill="none" stroke="#000000" stroke-dasharray="5,2" d="M823.1232,-118.714C847.5527,-123.4336 887.8491,-130 922.9516,-130 922.9516,-130 922.9516,-130 1544.1874,-130 1563.2799,-130 1584.2553,-133.2816 1601.4922,-136.8725"/>
<polygon fill="#000000" stroke="#000000" points="1601.1721,-140.3859 1611.6912,-139.1217 1602.6797,-133.5502 1601.1721,-140.3859"/>
<text text-anchor="middle" x="1230.9516" y="-133.8" font-family="Times,serif" font-size="14.00" fill="#000000">ε</text>
</g>
<!-- 30&#45;&gt;28 -->
<g id="edge45" class="edge">
<title>30&#45;&gt;28</title>
<path fill="none" stroke="#000000" stroke-dasharray="5,2" d="M226.2914,-114C236.4173,-114 248.4994,-114 259.5671,-114"/>
<polygon fill="#000000" stroke="#000000" points="259.7706,-117.5001 269.7706,-114 259.7705,-110.5001 259.7706,-117.5001"/>
<text text-anchor="middle" x="247.9919" y="-117.8" font-family="Times,serif" font-size="14.00" fill="#000000">ε</text>
</g>
<!-- 30&#45;&gt;31 -->
<g id="edge44" class="edge">
<title>30&#45;&gt;31</title>
<path fill="none" stroke="#000000" stroke-dasharray="5,2" d="M209.5129,-92.0197C220.4635,-58.8926 246.4419,0 292.7399,0 292.7399,0 292.7399,0 673.7157,0 724.3579,0 763.9881,-50.823 784.7344,-84.6005"/>
<polygon fill="#000000" stroke="#000000" points="781.9697,-86.8004 790.0787,-93.6191 787.9917,-83.2318 781.9697,-86.8004"/>
<text text-anchor="middle" x="483.2278" y="-3.8" font-family="Times,serif" font-size="14.00" fill="#000000">ε</text>
</g>
</g>
</svg>