<svg width="385pt" height="98pt"
 viewBox="0.00 0.00 385.00 98.00" xmlns="http://www.w3.org/2000/svg" xmlns:xlink="http://www.w3.org/1999/xlink">
<g id="graph0" class="graph" transform="scale(1 1) rotate(0) translate(4 94)">
<title>FA</title>
<polygon fill="#ffffff"  points="-4,4 -4,-94 381,-94 381,4 -4,4"/>
<!-- start -->
<g id="node1" class="node">
<title>start</title>
<text text-anchor="middle" x="27" y="-41.3" font-family="Times,serif" font-size="14.00" fill="#000000">start</text>
</g>
<!-- 4 -->
<g id="node2" class="node">
<title>4</title>
<ellipse fill="none" stroke="#000000" cx="109" cy="-45" rx="18" ry="18"/>
<text text-anchor="middle" x="109" y="-41.3" font-family="Times,serif" font-size="14.00" fill="#000000">4</text>
</g>
<!-- start&#45;&gt;4 -->
<g id="edge1" class="edge">
<title>start&#45;&gt;4</title>
<path fill="none" stroke="#000000" d="M54.3048,-45C62.6909,-45 71.9407,-45 80.4103,-45"/>
<polygon fill="#000000" stroke="#000000" points="80.5976,-48.5001 90.5976,-45 80.5976,-41.5001 80.5976,-48.5001"/>
</g>
<!-- 0 -->
<g id="node3" class="node">
<title>0</title>
<ellipse fill="none" stroke="#000000" cx="189" cy="-72" rx="18" ry="18"/>
<text text-anchor="middle" x="189" y="-68.3" font-family="Times,serif" font-size="14.00" fill="#000000">0</text>
</g>
<!-- 4&#45;&gt;0 -->
<g id="edge3" class="edge">
<title>4&#45;&gt;0</title>
<path fill="none" stroke="#000000" stroke-dasharray="5,2" d="M126.3588,-50.8586C136.7373,-54.3613 150.148,-58.8874 161.8965,-62.8526"/>
<polygon fill="#000000" stroke="#000000" points="161.0809,-66.2712 171.6751,-66.1528 163.3194,-59.6388 161.0809,-66.2712"/>
<text text-anchor="middle" x="149" y="-62.8" font-family="Times,serif" font-size="14.00" fill="#000000">ε</text>
</g>
<!-- 2 -->
<g id="node6" class="node">
<title>2</title>
<ellipse fill="none" stroke="#000000" cx="189" cy="-18" rx="18" ry="18"/>
<text text-anchor="middle" x="189" y="-14.3" font-family="Times,serif" font-size="14.00" fill="#000000">2</text>
</g>
<!-- 4&#45;&gt;2 -->
<g id="edge2" class="edge">
<title>4&#45;&gt;2</title>
<path fill="none" stroke="#000000" stroke-dasharray="5,2" d="M125.7424,-38.1541C131.7725,-35.7775 138.6539,-33.1672 145,-31 150.3707,-29.1659 156.1603,-27.3457 161.7194,-25.6737"/>
<polygon fill="#000000" stroke="#000000" points="162.7259,-29.0261 171.3368,-22.8534 160.756,-22.3089 162.7259,-29.0261"/>
<text text-anchor="middle" x="149" y="-34.8" font-family="Times,serif" font-size="14.00" fill="#000000">ε</text>
</g>
<!-- 1 -->
<g id="node4" class="node">
<title>1</title>
<ellipse fill="none" stroke="#000000" cx="271" cy="-72" rx="18" ry="18"/>
<text text-anchor="middle" x="271" y="-68.3" font-family="Times,serif" font-size="14.00" fill="#000000">1</text>
</g>
<!-- 0&#45;&gt;1 -->
<g id="edge4" class="edge">
<title>0&#45;&gt;1</title>
<path fill="none" stroke="#000000" d="M207.1985,-72C217.6024,-72 230.8785,-72 242.6232,-72"/>
<polygon fill="#000000" stroke="#000000" points="242.8524,-75.5001 252.8524,-72 242.8524,-68.5001 242.8524,-75.5001"/>
<text text-anchor="middle" x="230" y="-75.8" font-family="Times,serif" font-size="14.00" fill="#000000">a</text>
</g>
<!-- 5 -->
<g id="node5" class="node">
<title>5</title>
<ellipse fill="none" stroke="#ff0000" cx="355" cy="-45" rx="18" ry="18"/>
<ellipse fill="none" stroke="#ff0000" cx="355" cy="-45" rx="22" ry="22"/>
<text text-anchor="middle" x="355" y="-41.3" font-family="Times,serif" font-size="14.00" fill="#000000">5</text>
</g>
<!-- 1&#45;&gt;5 -->
<g id="edge5" class="edge">
<title>1&#45;&gt;5</title>
<path fill="none" stroke="#000000" stroke-dasharray="5,2" d="M288.4049,-66.4056C298.7667,-63.075 312.2123,-58.7532 324.3065,-54.8658"/>
<polygon fill="#000000" stroke="#000000" points="325.6011,-58.1261 334.0504,-51.7338 323.459,-51.4619 325.6011,-58.1261"/>
<text text-anchor="middle" x="311" y="-63.8" font-family="Times,serif" font-size="14.00" fill="#000000">ε</text>
</g>
<!-- 3 -->
<g id="node7" class="node">
<title>3</title>
<ellipse fill="none" stroke="#000000" cx="271" cy="-18" rx="18" ry="18"/>
<text text-anchor="middle" x="271" y="-14.3" font-family="Times,serif" font-size="14.00" fill="#000000">3</text>
</g>
<!-- 2&#45;&gt;3 -->
<g id="edge6" class="edge">
<title>2&#45;&gt;3</title>
<path fill="none" stroke="#000000" d="M207.1985,-18C217.6024,-18 230.8785,-18 242.6232,-18"/>
<polygon fill="#000000" stroke="#000000" points="242.8524,-21.5001 252.8524,-18 242.8524,-14.5001 242.8524,-21.5001"/>
<text text-anchor="middle" x="230" y="-21.8" font-family="Times,serif" font-size="14.00" fill="#000000">b</text>
</g>
<!-- 3&#45;&gt;5 -->
<g id="edge7" class="edge">
<title>3&#45;&gt;5</title>
<path fill="none" stroke="#000000" stroke-dasharray="5,2" d="M288.4049,-23.5944C298.7667,-26.925 312.2123,-31.2468 324.3065,-35.1342"/>
<polygon fill="#000000" stroke="#000000" points="323.459,-38.5381 334.0504,-38.2662 325.6011,-31.8739 323.459,-38.5381"/>
<text text-anchor="middle" x="311" y="-34.8" font-family="Times,serif" font-size="14.00" fill="#000000">ε</text>
</g>
</g>
</svg>